<svg width="30" height="28" viewBox="0 0 30 28" fill="none" xmlns="http://www.w3.org/2000/svg">
    <path
        d="M22.8769 23.116C21.0159 24.9778 18.6266 26.2214 16.0339 26.6774C13.4412 27.1335 10.7709
        26.7799 8.38622 25.6648C6.00154 24.5497 4.01817 22.7273 2.70582 20.4452C1.39346 18.1631
        0.815825 15.5322 1.05144 12.9103C1.28705 10.2884 2.32449 7.8026 4.02267 5.79107C5.72086
        3.77954 7.99737 2.33985 10.5426 1.66778C13.0879 0.995717 15.7784 1.12388 18.2483
        2.03486C20.71812.94584 22.8475 4.59542 24.3468 6.75927L26.2387 10.4376"
        stroke="white"
        strokeWidth="2"
        strokeLinecap="round"
        strokeLinejoin="round"
    />
    <path
        d="M28.138 3.89502L26.2084 10.6638L19.5225 8.46283"
        stroke="white"
        strokeWidth="2"
        strokeLinecap="round"
        strokeLinejoin="round"
    />
</svg>