<svg width="131" height="171" viewBox="0 0 131 171" fill="none" xmlns="http://www.w3.org/2000/svg">
<path d="M109.022 149.178C109.636 153.043 109.924 156.994 111.163 160.71C112.403 164.427 114.757 167.991 118.338 169.575C119.197 169.969 120.12 170.203 121.063 170.266C122.751 170.358 124.424 169.768 125.85 168.861C127.05 168.098 128.141 167.056 128.616 165.716C129.119 164.296 128.879 162.713 128.382 161.29C126.544 156.023 121.662 152.553 117.901 148.43C114.765 144.988 112.34 140.966 109.422 137.338C108.882 136.665 108.28 135.975 107.459 135.709C107.086 135.588 106.58 135.621 106.428 135.981C106.387 136.096 106.372 136.218 106.385 136.338C106.445 137.427 107.211 138.329 107.936 139.144C113.5 145.414 118.817 151.892 123.888 158.577C124.662 159.595 125.441 160.644 125.814 161.86C126.306 163.441 126.04 165.26 125.038 166.585C124.036 167.91 122.302 168.653 120.668 168.389C119.365 168.177 118.23 167.386 117.202 166.535C116.056 165.614 115.031 164.551 114.153 163.372C112.156 160.606 111.35 157.161 110.931 153.776C110.513 150.39 110.435 146.953 109.69 143.623C109.279 141.764 108.645 139.902 107.508 138.353C106.606 137.121 104.325 135.46 105.684 138.117C107.45 141.564 108.41 145.371 109.022 149.178Z" fill="#FF8AB7"/>
<path d="M93.0664 71.7261L57.8541 91.8576C57.8915 92.3704 96.7731 141.524 96.7731 141.524C96.7731 141.524 98.3979 145.22 108.825 139.156C117.557 134.079 116.073 130.45 116.073 130.45C116.073 130.45 93.4846 72.0109 93.0664 71.7261Z" fill="#695AFE"/>
<path d="M103.129 141.886C95.896 130.677 74.5404 97.6358 67.3023 86.4382L61.6716 89.6596L61.7214 89.7351C61.8819 90.0109 91.3175 130.124 100.448 142.564C101.362 142.428 102.26 142.201 103.129 141.886Z" fill="#4CB5C4"/>
<path d="M109.155 138.955L78.9872 79.7566L73.1398 83.1014L107.174 140.078C107.699 139.799 108.247 139.495 108.825 139.159L109.155 138.955Z" fill="#4CB5C4"/>
<path d="M91.0905 72.8343L86.6595 75.3641C91.6297 86.6731 107.066 121.733 113.48 135.793C114.618 134.721 115.285 133.774 115.67 132.985L91.0905 72.8343Z" fill="#4CB5C4"/>
<path d="M59.8957 90.6865L58.5614 91.4583C66.7422 101.875 90.7629 132.908 98.1638 142.488C98.6781 142.621 99.2102 142.671 99.7403 142.637L59.8957 90.6865Z" fill="#FDCC1D"/>
<path d="M71.3573 84.1315L69.6735 85.0941C77.4491 97.7102 97.8931 130.86 104.397 141.41C104.742 141.265 105.104 141.105 105.482 140.931L71.3573 84.1315Z" fill="#FDCC1D"/>
<path d="M93.0683 71.7131L91.7849 72.4478C97.5852 86.4577 112.01 121.495 116.143 131.527C116.204 131.169 116.18 130.802 116.073 130.455C116.073 130.455 93.4847 72.0076 93.0683 71.7131Z" fill="#FDCC1D"/>
<path d="M111.657 137.32L83.9712 76.9205L81.9329 78.0868L110.763 137.95C111.078 137.735 111.376 137.525 111.657 137.32Z" fill="#FDCC1D"/>
<path d="M92.9202 71.4652C93.713 72.8291 86.5389 78.4815 76.8947 84.0899C67.2504 89.6983 58.791 93.1381 57.9966 91.7791C57.2022 90.4201 64.3796 84.7629 74.0222 79.1544C83.6649 73.546 92.1275 70.1013 92.9202 71.4652Z" fill="#695AFE"/>
<path d="M11.1454 24.0295C11.7926 24.0276 12.4143 23.7773 12.8821 23.3302C13.3419 22.8729 13.6055 22.2545 13.6172 21.606C13.594 20.9726 13.3933 20.3146 12.9163 19.8677C12.4618 19.4043 11.8419 19.1404 11.1929 19.134C10.5439 19.1276 9.91888 19.3792 9.45536 19.8336C8.99589 20.291 8.7328 20.9095 8.72197 21.5578C8.74347 22.1912 8.94423 22.8492 9.42123 23.2961C9.88173 23.751 10.4983 24.0133 11.1454 24.0295Z" fill="#4CB5C4"/>
<path d="M64.5861 5.51696C65.2338 5.51551 65.8562 5.26516 66.3244 4.8177C66.7842 4.36046 67.0473 3.74182 67.0578 3.09349C67.0363 2.4601 66.8339 1.80208 66.3586 1.35516C66.1335 1.12547 65.8654 0.94238 65.5696 0.81635C65.2737 0.690321 64.9559 0.623821 64.6344 0.620652C64.3128 0.617483 63.9938 0.677705 63.6955 0.797879C63.3972 0.918052 63.1256 1.09582 62.896 1.32103C62.4363 1.77827 62.1731 2.3969 62.1626 3.04524C62.1841 3.67862 62.3865 4.33664 62.8619 4.78357C63.3228 5.23793 63.9391 5.50011 64.5861 5.51696Z" fill="#4CB5C4"/>
<path d="M85.5261 21.6751C86.1732 21.6732 86.7949 21.4229 87.2628 20.9758C87.7225 20.5185 87.9862 19.9 87.9978 19.2516C87.9747 18.6182 87.7739 17.9602 87.2969 17.5149C86.8424 17.0515 86.2225 16.7876 85.5735 16.7812C84.9245 16.7748 84.2995 17.0265 83.836 17.4808C83.3763 17.9374 83.1132 18.5555 83.1026 19.2034C83.1241 19.8368 83.3249 20.4948 83.8019 20.9417C84.2624 21.3966 84.879 21.6589 85.5261 21.6751Z" fill="#4CB5C4"/>
<path d="M56.0541 88.0229C56.7018 88.0215 57.3242 87.7711 57.7925 87.3236C58.2525 86.8666 58.5157 86.2478 58.5259 85.5994C58.5044 84.966 58.302 84.308 57.8266 83.8627C57.6015 83.6331 57.3334 83.45 57.0376 83.3239C56.7417 83.1979 56.4239 83.1314 56.1024 83.1282C55.7808 83.1251 55.4618 83.1853 55.1635 83.3055C54.8653 83.4256 54.5936 83.6034 54.364 83.8286C53.9044 84.2853 53.6412 84.9033 53.6307 85.5512C53.6522 86.1846 53.8546 86.8426 54.3299 87.2895C54.7908 87.7439 55.4072 88.0061 56.0541 88.0229Z" fill="#4CB5C4"/>
<path d="M38.602 57.4912C39.2495 57.4889 39.8716 57.2387 40.3403 56.7919C40.7998 56.3345 41.0629 55.716 41.0737 55.0677C41.0522 54.4343 40.8498 53.7763 40.3744 53.3294C39.92 52.866 39.3001 52.6021 38.6511 52.5957C38.002 52.5893 37.3771 52.8409 36.9135 53.2953C36.453 53.7521 36.1893 54.3709 36.1785 55.0195C36.2016 55.6529 36.4024 56.3109 36.8794 56.7578C37.3395 57.2123 37.9554 57.4746 38.602 57.4912Z" fill="#4CB5C4"/>
<path d="M12.9699 47.7181C13.6175 47.7163 14.2398 47.466 14.7082 47.0188C15.1683 46.5618 15.4315 45.943 15.4416 45.2946C15.4201 44.6612 15.2177 44.0032 14.7424 43.5579C14.5173 43.3282 14.2492 43.1451 13.9533 43.0191C13.6575 42.8931 13.3397 42.8266 13.0182 42.8234C12.6966 42.8202 12.3776 42.8805 12.0793 43.0006C11.781 43.1208 11.5094 43.2986 11.2798 43.5238C10.8202 43.9804 10.557 44.5985 10.5464 45.2464C10.5679 45.8797 10.7703 46.5378 11.2457 46.9847C11.7064 47.4393 12.3229 47.7016 12.9699 47.7181Z" fill="#4CB5C4"/>
<path d="M33.5493 21.9346C34.197 21.9332 34.8193 21.6828 35.2876 21.2354C35.7477 20.7783 36.0108 20.1596 36.021 19.5112C35.9995 18.8778 35.7987 18.2198 35.3217 17.7745C34.8672 17.3111 34.2473 17.0472 33.5983 17.0408C32.9493 17.0344 32.3243 17.286 31.8608 17.7404C31.4007 18.1968 31.137 18.8149 31.1258 19.4629C31.1489 20.0963 31.3497 20.7543 31.8267 21.2013C32.2868 21.6558 32.9027 21.918 33.5493 21.9346Z" fill="#4CB5C4"/>
<path d="M46.9422 34.0268L46.9447 33.7706C46.9244 33.1267 46.6767 32.5109 46.2455 32.0323C45.7755 31.5917 45.1646 31.3319 44.5213 31.2989L43.8677 31.3789C43.4582 31.4881 43.0839 31.7015 42.7813 31.9981L42.3946 32.4839C42.1712 32.8562 42.0515 33.2816 42.048 33.7158L42.0454 33.972C42.0657 34.6159 42.3135 35.2318 42.7447 35.7103C43.2147 36.1509 43.8256 36.4107 44.4689 36.4437L45.1225 36.3637C45.5321 36.2548 45.9065 36.0415 46.2089 35.7445L46.5955 35.2587C46.819 34.8864 46.9387 34.461 46.9422 34.0268Z" fill="#4CB5C4"/>
<path d="M72.8403 29.5268C73.4882 29.5247 74.1105 29.2738 74.5786 28.8259C75.0383 28.3692 75.3014 27.7511 75.312 27.1033C75.2905 26.4699 75.0881 25.8119 74.6127 25.365C74.1519 24.9106 73.5355 24.6484 72.8885 24.6316C72.2413 24.6321 71.619 24.8813 71.1502 25.3276C70.6902 25.7846 70.427 26.4034 70.4168 27.0518C70.4383 27.6852 70.6407 28.3432 71.1161 28.7885C71.5763 29.244 72.193 29.5069 72.8403 29.5235L72.8403 29.5268Z" fill="#4CB5C4"/>
<path d="M83.9645 49.4427C84.6122 49.4412 85.2346 49.1909 85.7029 48.7434C86.1626 48.2862 86.4258 47.6675 86.4363 47.0192C86.4148 46.3858 86.2124 45.7278 85.737 45.2809C85.2825 44.8175 84.6626 44.5536 84.0136 44.5472C83.3646 44.5408 82.7396 44.7924 82.2761 45.2468C81.8156 45.7036 81.5518 46.3224 81.5411 46.9709C81.5642 47.6044 81.765 48.2623 82.242 48.7093C82.7021 49.1638 83.318 49.4261 83.9645 49.4427Z" fill="#4CB5C4"/>
<path d="M74.801 58.4175L75.0614 58.1622C75.4138 57.8263 75.654 57.3899 75.7492 56.9124C75.8445 56.435 75.7901 55.9398 75.5936 55.4944C75.4984 55.1917 75.3269 54.9186 75.0955 54.7013L74.6098 54.313C74.2366 54.0924 73.8113 53.9755 73.3778 53.9745L72.7242 54.0546C72.3146 54.1634 71.9402 54.3768 71.6378 54.6738L71.3791 54.929C71.1422 55.1402 70.9646 55.4096 70.8639 55.7105C70.7223 56.0043 70.6472 56.3256 70.644 56.6516C70.6408 56.9776 70.7095 57.3004 70.8453 57.5968C70.9405 57.9 71.1126 58.1732 71.345 58.39L71.8307 58.7766C72.2032 58.9998 72.6285 59.1195 73.0626 59.1233L73.7162 59.0432C74.1257 58.934 74.5 58.7207 74.8026 58.424L74.801 58.4175Z" fill="#4CB5C4"/>
<path d="M83.5798 77.3752C84.1191 77.4703 84.3698 77.5283 84.913 77.3884C85.3318 77.2776 85.7147 77.0598 86.024 76.7564L86.0339 76.745L86.4222 76.2593L86.4222 76.2511L86.4223 76.243C86.4323 76.2202 86.6661 75.6807 86.6761 75.6596L86.6763 75.6433C86.8015 75.1956 86.8061 74.7228 86.6898 74.2727C86.6913 74.2668 86.6914 74.2606 86.69 74.2547C86.6216 74.0488 86.5391 73.8479 86.443 73.6534C86.4435 73.6485 86.4436 73.6436 86.4431 73.6387C86.3311 73.4562 86.201 73.2854 86.0548 73.129C85.7511 72.8189 85.3721 72.5931 84.9549 72.4735C84.5181 72.3493 84.056 72.3447 83.6169 72.4603C83.1507 72.5756 82.7309 72.8306 82.4138 73.1912C82.0967 73.5518 81.8974 74.0008 81.8427 74.4778C81.767 74.8016 81.7789 75.1396 81.8771 75.4573C81.9584 75.6539 82.0364 75.8489 82.1177 76.0455C82.3279 76.4102 82.6277 76.7153 82.9886 76.9321L83.5703 77.1842C83.9964 77.3051 84.4472 77.3096 84.8757 77.1971L84.8871 77.1972L84.2336 77.2772L84.2515 77.2774L83.5997 77.1845L83.616 77.1847L83.0343 76.9325L83.0472 76.9408L82.5615 76.5542C82.5666 76.5577 82.571 76.5622 82.5744 76.5673L82.1974 76.074C82.2026 76.0811 82.2069 76.0889 82.2102 76.097C82.1306 75.9004 82.0509 75.7054 81.9696 75.5088C81.9743 75.5215 81.9774 75.5346 81.979 75.5481L81.8973 74.8945C81.9005 74.909 81.9003 74.9241 81.8969 74.9386L81.9914 74.2867C81.9896 74.2985 81.9862 74.31 81.9813 74.3209C82.0664 74.1275 82.1483 73.9325 82.2351 73.7392L82.2218 73.7603C82.3507 73.5983 82.4812 73.4364 82.6101 73.2745L82.5969 73.2875L83.0902 72.9104L83.0771 72.9185L83.6637 72.6762C83.6584 72.6778 83.6527 72.6777 83.6474 72.6761L84.3009 72.596L84.2797 72.5958L84.9315 72.6887C84.6162 72.5826 84.278 72.5641 83.9529 72.635C83.6288 72.6454 83.3134 72.7426 83.0396 72.9165C82.5018 73.2548 82.099 73.7703 81.9008 74.374L81.8063 75.0258C81.8013 75.46 81.9126 75.8876 82.1286 76.2643C82.2543 76.4287 82.3799 76.5932 82.5072 76.7576C82.8037 77.0605 83.1738 77.2812 83.5812 77.3981L83.5798 77.3752Z" fill="#4CB5C4"/>
<path d="M38.4186 89.5185L38.4211 89.2607C38.4394 88.9333 38.3699 88.607 38.2199 88.3155C38.113 88.0175 37.9433 87.7461 37.7222 87.5195C37.5012 87.2929 37.234 87.1165 36.9388 87.0022C36.6503 86.8463 36.3254 86.7704 35.9977 86.7824L35.3442 86.8641C34.9342 86.9723 34.5597 87.1857 34.2578 87.4833L33.8695 87.9691C33.6489 88.3422 33.532 88.7676 33.531 89.2011L33.5284 89.4589C33.5117 89.7861 33.5811 90.112 33.7296 90.4041C33.8373 90.7008 34.0074 90.971 34.2285 91.1965C34.4495 91.4219 34.7163 91.5973 35.0108 91.7108C35.2994 91.8665 35.6242 91.9424 35.9519 91.9306L36.6054 91.8489C37.0149 91.7405 37.3893 91.5277 37.6918 91.2314L38.0785 90.7456C38.3019 90.3733 38.4216 89.9479 38.4252 89.5137L38.4186 89.5185Z" fill="#4CB5C4"/>
<path d="M41.1589 72.5641L41.1615 72.3062C41.1416 71.6628 40.8938 71.0472 40.4622 70.5695C40.2505 70.3329 39.9805 70.1558 39.679 70.0559C39.3903 69.9005 39.0657 69.8241 38.738 69.8345L38.0844 69.9162C37.6748 70.0251 37.3004 70.2384 36.998 70.5354L36.6114 71.0212C36.3881 71.3936 36.2685 71.8189 36.2647 72.2531L36.2621 72.5109C36.2481 72.9943 36.3829 73.4703 36.6483 73.8746C36.9137 74.2788 37.2969 74.5917 37.7461 74.771C38.0345 74.9269 38.3595 75.0028 38.6872 74.9908L39.3407 74.9091C39.7502 74.8007 40.1245 74.5879 40.4271 74.2915L40.8138 73.8058C41.0344 73.4326 41.1512 73.0073 41.1523 72.5738L41.1589 72.5641Z" fill="#4CB5C4"/>
<path d="M62.1889 65.9565C62.8366 65.9551 63.4589 65.7047 63.9272 65.2573C64.3873 64.8002 64.6505 64.1815 64.6606 63.5331C64.6391 62.8997 64.4384 62.2417 63.9614 61.7947C63.5069 61.3314 62.887 61.0675 62.238 61.0611C61.589 61.0547 60.964 61.3063 60.5005 61.7606C60.041 62.2182 59.7774 62.8365 59.7654 63.4848C59.7886 64.1182 59.9893 64.7762 60.4663 65.2232C60.9264 65.6777 61.5424 65.9399 62.1889 65.9565Z" fill="#4CB5C4"/>
<path d="M68.6691 87.3313C69.3168 87.3299 69.9392 87.0795 70.4075 86.6321C70.8675 86.175 71.1307 85.5562 71.1409 84.9078C71.1194 84.2744 70.9186 83.6165 70.4416 83.1711C69.9871 82.7078 69.3672 82.4439 68.7182 82.4375C68.0692 82.4311 67.4442 82.6827 66.9807 83.137C66.5212 83.5939 66.2575 84.2117 66.2457 84.8596C66.2688 85.493 66.4696 86.151 66.9466 86.5979C67.4067 87.0525 68.0226 87.3147 68.6691 87.3313Z" fill="#4CB5C4"/>
<path d="M2.27209 62.8561C2.91173 62.8624 3.53081 62.3055 3.50795 61.6444C3.50568 61.3215 3.37803 61.0121 3.15195 60.7815C2.92586 60.5509 2.61903 60.4172 2.29622 60.4085C1.65495 60.4022 1.03586 60.9591 1.06035 61.6203C1.06263 61.9432 1.19028 62.2526 1.41636 62.4832C1.64245 62.7138 1.94928 62.8475 2.27209 62.8561Z" fill="#FF8AB7"/>
<path d="M101.05 38.8716C101.69 38.8779 102.309 38.321 102.286 37.6598C102.284 37.3369 102.156 37.0275 101.93 36.7969C101.704 36.5663 101.397 36.4326 101.074 36.424C100.435 36.4177 99.8155 36.9746 99.8383 37.6357C99.8406 37.9586 99.9682 38.268 100.194 38.4986C100.42 38.7292 100.727 38.8629 101.05 38.8716Z" fill="#FF8AB7"/>
<path d="M20.6841 73.844C21.3254 73.8503 21.9444 73.2934 21.9199 72.6323C21.9181 72.3092 21.7906 71.9996 21.5644 71.7689C21.3382 71.5382 21.0312 71.4046 20.7082 71.3964C20.0686 71.3901 19.4495 71.947 19.4723 72.6081C19.475 72.9309 19.6028 73.2401 19.8288 73.4706C20.0548 73.7011 20.3614 73.835 20.6841 73.844Z" fill="#FF8AB7"/>
<path d="M22.0347 15.4519C22.6759 15.4582 23.295 14.9013 23.2705 14.2402C23.2683 13.9172 23.1406 13.6078 22.9145 13.3772C22.6884 13.1467 22.3816 13.0129 22.0588 13.0043C21.4192 12.998 20.8001 13.5549 20.8229 14.216C20.8256 14.5388 20.9534 14.848 21.1794 15.0785C21.4054 15.309 21.712 15.4428 22.0347 15.4519Z" fill="#FF8AB7"/>
<path d="M27.3834 47.1519L27.6379 47.1544C27.8017 47.1632 27.9648 47.1282 28.1105 47.053C28.2606 46.9994 28.3973 46.9138 28.5111 46.8022C28.6249 46.6907 28.7131 46.5557 28.7697 46.4067C28.8477 46.2625 28.8859 46.1001 28.8804 45.9362L28.8395 45.6094C28.7848 45.4047 28.6781 45.2176 28.5299 45.0662L28.2838 44.8729C28.0976 44.7623 27.8851 44.7038 27.6686 44.7036L27.4108 44.7011C27.1699 44.6945 26.9328 44.7621 26.7316 44.8947C26.5304 45.0272 26.3747 45.2184 26.2856 45.4423C26.2073 45.5864 26.169 45.7489 26.1749 45.9128L26.2158 46.2396C26.2699 46.4445 26.3766 46.6318 26.5254 46.7828L26.7699 46.9761C26.957 47.0859 27.1698 47.1443 27.3867 47.1454L27.3834 47.1519Z" fill="#FF8AB7"/>
<path d="M60.0808 18.9144C60.7205 18.9208 61.3395 18.3638 61.3167 17.7027C61.3144 17.3798 61.1868 17.0704 60.9607 16.8398C60.7346 16.6092 60.4278 16.4755 60.1049 16.4668C59.4637 16.4605 58.8462 17.0174 58.8691 17.6786C58.8714 18.0015 58.999 18.3109 59.2251 18.5415C59.4512 18.7721 59.758 18.9058 60.0808 18.9144Z" fill="#FF8AB7"/>
<path d="M42.9981 28.5227C43.6377 28.529 44.2568 27.9721 44.2339 27.311C44.2316 26.9881 44.104 26.6787 43.8779 26.4481C43.6518 26.2175 43.345 26.0838 43.0222 26.0751C42.3825 26.0688 41.7635 26.6257 41.7863 27.2869C41.7886 27.6098 41.9162 27.9192 42.1423 28.1498C42.3684 28.3804 42.6752 28.5141 42.9981 28.5227Z" fill="#FF8AB7"/>
<path d="M42.9981 28.5227C43.6377 28.529 44.2568 27.9721 44.2339 27.311C44.2316 26.9881 44.104 26.6787 43.8779 26.4481C43.6518 26.2175 43.345 26.0838 43.0222 26.0751C42.3825 26.0688 41.7635 26.6257 41.7863 27.2869C41.7886 27.6098 41.9162 27.9192 42.1423 28.1498C42.3684 28.3804 42.6752 28.5141 42.9981 28.5227Z" fill="#FF8AB7"/>
<path d="M55.5452 35.2033L55.289 35.2008C54.9669 35.212 54.6589 35.336 54.419 35.5512C54.1983 35.7856 54.0686 36.091 54.0531 36.4125L54.094 36.7393C54.1475 36.9441 54.2537 37.1314 54.4019 37.2825L54.6481 37.4759C54.8348 37.5866 55.0478 37.6451 55.2649 37.6451L55.5211 37.6477C55.8432 37.643 56.1513 37.5145 56.3813 37.289C56.6114 37.0634 56.7459 36.7579 56.7569 36.4359C56.7449 36.3281 56.7313 36.2186 56.7177 36.1092C56.663 35.9045 56.5563 35.7174 56.4081 35.566L56.162 35.3726C55.975 35.2626 55.7621 35.2042 55.5452 35.2033Z" fill="#FF8AB7"/>
<path d="M42.1262 65.501C42.7733 65.4991 43.395 65.2488 43.8629 64.8017C44.3226 64.3443 44.5863 63.7259 44.5979 63.0775C44.5748 62.4441 44.374 61.7861 43.897 61.3408C43.4425 60.8774 42.8226 60.6135 42.1736 60.6071C41.5246 60.6007 40.8996 60.8523 40.4361 61.3067C39.9764 61.7633 39.7133 62.3814 39.7027 63.0292C39.7242 63.6626 39.9249 64.3223 40.402 64.7676C40.8621 65.2231 41.4789 65.4854 42.1262 65.501Z" fill="#FF8AB7"/>
<path d="M31.435 79.8052C32.0829 79.8031 32.7052 79.5522 33.1733 79.1043C33.633 78.6477 33.8961 78.0296 33.9067 77.3817C33.8852 76.7483 33.6845 76.0887 33.2075 75.6434C32.753 75.18 32.1331 74.9161 31.4841 74.9097C30.835 74.9033 30.2101 75.1549 29.7465 75.6093C29.2868 76.0666 29.0231 76.6851 29.0115 77.3335C29.0346 77.9669 29.2354 78.6249 29.7124 79.0702C30.1719 79.5259 30.7881 79.7888 31.435 79.8052Z" fill="#FF8AB7"/>
<path d="M51.2074 89.6952L50.9562 89.1786C50.7228 88.7528 50.3634 88.4096 49.9273 88.1961C49.4911 87.9826 48.9996 87.9093 48.5202 87.9862C48.1961 87.9972 47.8808 88.0943 47.6068 88.2677L47.1135 88.6447C46.8106 88.9412 46.5899 89.3113 46.473 89.7187C46.4415 89.9354 46.41 90.1521 46.3801 90.3705C46.3725 90.804 46.481 91.2315 46.6943 91.609L46.947 92.1255C47.1801 92.55 47.5385 92.8922 47.9734 93.1053C48.4082 93.3184 48.8983 93.3921 49.3766 93.3162C49.7002 93.3055 50.015 93.2083 50.2883 93.0347L50.7816 92.6578C51.0842 92.361 51.3048 91.991 51.4221 91.5838C51.452 91.367 51.4835 91.1503 51.515 90.9319C51.5225 90.4985 51.414 90.0709 51.2008 89.6935L51.2074 89.6952Z" fill="#FF8AB7"/>
<path d="M60.7399 75.4007L60.4895 75.1404C60.2783 74.904 60.0089 74.7269 59.708 74.6268C59.2624 74.4418 58.773 74.3886 58.298 74.4736C57.823 74.5586 57.3824 74.7782 57.0286 75.1063L56.642 75.5921C56.4186 75.9644 56.2989 76.3898 56.2953 76.824C56.3225 77.0413 56.3498 77.257 56.3754 77.4775C56.4842 77.8872 56.6976 78.2615 56.9946 78.5639L57.2498 78.8243C57.5857 79.1767 58.0222 79.4169 58.4996 79.5121C58.977 79.6073 59.4722 79.553 59.9176 79.3565C60.2207 79.262 60.494 79.0903 60.7107 78.8584L61.099 78.3727C61.3197 77.9995 61.4365 77.5742 61.4375 77.1407C61.4119 76.9234 61.3847 76.7077 61.3575 76.4871C61.2493 76.0772 61.0359 75.7027 60.7383 75.4007L60.7399 75.4007Z" fill="#FF8AB7"/>
<path d="M54.9769 54.9469L54.9794 54.6907C54.9919 54.2089 54.8565 53.7348 54.5915 53.3322C54.3264 52.9296 53.9445 52.6178 53.497 52.4388C53.2085 52.2829 52.8836 52.207 52.5559 52.219L51.9024 52.299C51.4931 52.4076 51.1192 52.621 50.8176 52.9183L50.4293 53.404C50.2062 53.7771 50.0866 54.2029 50.0826 54.6376L50.0801 54.8937C50.1 55.538 50.3484 56.1542 50.781 56.6321C50.9922 56.8685 51.2616 57.0456 51.5625 57.1457C51.851 57.3014 52.1759 57.3773 52.5035 57.3655L53.1571 57.2854C53.5666 57.1762 53.9409 56.9629 54.2435 56.6662L54.6302 56.1805C54.8536 55.8081 54.9733 55.3828 54.9768 54.9485L54.9769 54.9469Z" fill="#FF8AB7"/>
<path d="M74.2247 64.7273L73.976 64.467C73.6397 64.1147 73.203 63.8745 72.7253 63.7793C72.2476 63.6841 71.7522 63.7384 71.3065 63.9348C71.0038 64.0289 70.7309 64.2006 70.5151 64.4329C70.3845 64.5948 70.2557 64.7567 70.1268 64.9186C69.9062 65.2918 69.7893 65.7171 69.7883 66.1506L69.8699 66.8042C69.9781 67.2141 70.1916 67.5886 70.4891 67.8906L70.7428 68.1509C71.0791 68.5032 71.5158 68.7434 71.9934 68.8386C72.4711 68.9338 72.9665 68.8795 73.4122 68.6831C73.7153 68.5886 73.9886 68.417 74.2053 68.185L74.592 67.6993C74.8156 67.327 74.9353 66.9016 74.9387 66.4674L74.857 65.8138C74.749 65.4042 74.5362 65.0297 74.2394 64.7274L74.2247 64.7273Z" fill="#FF8AB7"/>
<path d="M73.9943 42.9164C74.642 42.9149 75.2644 42.6646 75.7327 42.2171C76.1927 41.7601 76.4559 41.1413 76.4661 40.4929C76.4446 39.8595 76.2422 39.2015 75.7668 38.7562C75.3123 38.2928 74.6924 38.0289 74.0434 38.0225C73.3944 38.0161 72.7694 38.2678 72.3059 38.7221C71.8458 39.1786 71.582 39.7966 71.5709 40.4447C71.594 41.0781 71.7947 41.7377 72.2718 42.183C72.7319 42.6375 73.3478 42.8998 73.9943 42.9164Z" fill="#FF8AB7"/>
<path d="M98.2458 49.714L98.2484 49.4562C98.2599 48.9745 98.1242 48.5008 97.8593 48.0984C97.5944 47.696 97.2129 47.384 96.766 47.2042C96.4774 47.0485 96.1526 46.9727 95.8249 46.9844L95.1714 47.0645C94.7619 47.1737 94.3876 47.387 94.085 47.6837L93.6983 48.1694C93.4777 48.5426 93.3608 48.968 93.3598 49.4015L93.3572 49.6593C93.3771 50.3028 93.6249 50.9183 94.0565 51.396C94.2682 51.6326 94.5382 51.8097 94.8397 51.9096C95.1283 52.0652 95.453 52.1416 95.7807 52.131L96.4343 52.0493C96.8442 51.9412 97.2187 51.7277 97.5207 51.4301L97.909 50.9444C98.1322 50.5719 98.2519 50.1466 98.2557 49.7124L98.2458 49.714Z" fill="#FF8AB7"/>
<path d="M89.6984 68.0293C90.3463 68.0273 90.9686 67.7763 91.4368 67.3284C91.8964 66.8718 92.1596 66.2537 92.1701 65.6058C92.1486 64.9724 91.9479 64.3128 91.4709 63.8675C91.0164 63.4041 90.3965 63.1402 89.7475 63.1338C89.0985 63.1274 88.4735 63.3791 88.01 63.8334C87.5502 64.2908 87.2866 64.9092 87.2749 65.5576C87.2981 66.191 87.4988 66.849 87.9759 67.2943C88.4353 67.75 89.0515 68.0129 89.6984 68.0293Z" fill="#FF8AB7"/>
<path d="M93.4055 31.3352C94.0452 31.3415 94.6642 30.7846 94.6414 30.1235C94.6391 29.8006 94.5115 29.4912 94.2854 29.2606C94.0593 29.03 93.7525 28.8963 93.4296 28.8876C92.79 28.8813 92.1709 29.4382 92.1938 30.0994C92.1961 30.4223 92.3237 30.7317 92.5498 30.9623C92.7759 31.1929 93.0827 31.3266 93.4055 31.3352Z" fill="#FDCC1D"/>
<path d="M76.5754 15.9895C77.2167 15.9958 77.8342 15.4389 77.8113 14.7777C77.809 14.4548 77.6814 14.1454 77.4553 13.9148C77.2292 13.6842 76.9224 13.5505 76.5996 13.5419C75.9599 13.5356 75.3408 14.0925 75.3637 14.7536C75.3664 15.0764 75.4942 15.3856 75.7202 15.6161C75.9462 15.8466 76.2528 15.9804 76.5754 15.9895Z" fill="#FDCC1D"/>
<path d="M46.3168 6.42862L46.5746 6.43116C46.7383 6.43991 46.9015 6.4049 47.0472 6.32974C47.1983 6.28205 47.3346 6.19628 47.4429 6.0807C47.561 5.97492 47.6495 5.84026 47.6997 5.68994C47.7772 5.54549 47.8153 5.38325 47.8104 5.21942L47.7696 4.89264C47.7152 4.68782 47.6085 4.50064 47.46 4.34943L47.2139 4.15444C47.0274 4.04462 46.8151 3.98622 46.5987 3.98519L46.3409 3.98265C46.1771 3.97374 46.0139 4.00875 45.8683 4.08406C45.7168 4.13094 45.5803 4.21682 45.4725 4.3331C45.354 4.43878 45.265 4.57342 45.2141 4.72384C45.1372 4.86843 45.0995 5.03069 45.105 5.19438L45.1459 5.52117C45.1996 5.72628 45.3064 5.91363 45.4555 6.06437L45.7 6.25935C45.8869 6.36945 46.0998 6.42787 46.3168 6.42862Z" fill="#FDCC1D"/>
<path d="M9.3207 35.815L9.58105 35.5597C9.80134 35.325 9.93151 35.0199 9.94856 34.6984C9.95731 34.5347 9.9223 34.3716 9.84714 34.2258C9.79985 34.0746 9.71403 33.9382 9.5981 33.8301L9.35197 33.6351C9.16518 33.526 8.9531 33.4676 8.73679 33.4658L8.41001 33.5067C8.20404 33.5576 8.01471 33.6609 7.86037 33.8064L7.60166 34.0601C7.38005 34.2946 7.24968 34.6007 7.23414 34.923C7.22559 35.0865 7.25999 35.2495 7.33392 35.3956C7.3826 35.5501 7.47132 35.6889 7.59106 35.798L7.8389 35.9848C8.02598 36.0946 8.23878 36.153 8.45572 36.1541L8.7825 36.1132C8.98437 36.0613 9.16962 35.9586 9.3207 35.815Z" fill="#FDCC1D"/>
<path d="M13.8414 63.7421C14.4811 63.7484 15.1001 63.1915 15.0773 62.5303C15.075 62.2074 14.9474 61.898 14.7213 61.6674C14.4952 61.4368 14.1884 61.3031 13.8656 61.2945C13.2243 61.2881 12.6052 61.845 12.6297 62.5062C12.632 62.8291 12.7596 63.1385 12.9857 63.3691C13.2118 63.5997 13.5186 63.7334 13.8414 63.7421Z" fill="#FDCC1D"/>
<path d="M36.6488 46.8548L36.391 46.8523C36.2275 46.8437 36.0645 46.8781 35.9184 46.9521C35.6991 47.0464 35.511 47.2008 35.3759 47.3976C35.2409 47.5944 35.1643 47.8255 35.1552 48.064L35.196 48.3908C35.2504 48.5956 35.3571 48.7828 35.5056 48.934L35.7517 49.1274C35.938 49.2379 36.1504 49.2963 36.3669 49.2966L36.6247 49.2992C36.9465 49.2933 37.2539 49.1645 37.4837 48.9391C37.7135 48.7138 37.8484 48.4091 37.8606 48.0874L37.8198 47.7606C37.7664 47.5554 37.6596 47.368 37.5102 47.2174C37.4292 47.1514 37.3483 47.0869 37.264 47.0224C37.0775 46.9126 36.8653 46.8542 36.6489 46.8532L36.6488 46.8548Z" fill="#FDCC1D"/>
<path d="M26.8327 30.9989L26.8302 31.2551C26.8222 31.4187 26.8572 31.5817 26.9316 31.7277C26.9852 31.8778 27.0708 32.0144 27.1823 32.1282C27.2939 32.242 27.4288 32.3302 27.5778 32.3868C27.7221 32.4648 27.8845 32.503 28.0484 32.4975L28.3751 32.4567C28.5798 32.4019 28.7669 32.2953 28.9184 32.1471L29.1117 31.9009C29.2223 31.7148 29.2807 31.5023 29.281 31.2857L29.2835 31.0279C29.2776 30.7061 29.1488 30.3988 28.9235 30.169C28.6981 29.9391 28.3934 29.8043 28.0718 29.7921L27.745 29.8329C27.5401 29.8871 27.3528 29.9938 27.2018 30.1425L27.0084 30.3887C26.8987 30.5752 26.8403 30.7874 26.8392 31.0038L26.8327 30.9989Z" fill="#FDCC1D"/>
<path d="M63.108 24.7293L62.8502 24.7268C62.6095 24.7212 62.3728 24.7891 62.1718 24.9216C61.9707 25.054 61.8149 25.2446 61.725 25.468C61.647 25.6122 61.6088 25.7746 61.6143 25.9385L61.6551 26.2653C61.7085 26.4706 61.8153 26.658 61.9647 26.8085L62.2092 27.0035C62.396 27.1141 62.609 27.1726 62.8261 27.1728L63.0839 27.1753C63.406 27.1666 63.7143 27.0422 63.9522 26.8248C64.0706 26.7194 64.1592 26.5846 64.209 26.4341C64.2872 26.2899 64.3254 26.1275 64.3197 25.9636L64.2789 25.6368C64.2245 25.432 64.1178 25.2448 63.9693 25.0936L63.7231 24.9002C63.5366 24.7905 63.3244 24.7321 63.108 24.731L63.108 24.7293Z" fill="#FDCC1D"/>
<path d="M83.1994 35.675C83.8471 35.6735 84.4694 35.4232 84.9377 34.9757C85.3975 34.5185 85.6606 33.8998 85.6711 33.2515C85.6496 32.6181 85.4489 31.9601 84.9719 31.5132C84.5174 31.0498 83.8975 30.7859 83.2485 30.7795C82.5994 30.7731 81.9745 31.0247 81.5109 31.4791C81.0512 31.9364 80.7875 32.5548 80.7759 33.2033C80.7991 33.8367 80.9998 34.4947 81.4768 34.9416C81.9369 35.3961 82.5529 35.6584 83.1994 35.675Z" fill="#FDCC1D"/>
<path d="M66.2934 54.1642C66.9413 54.1621 67.5636 53.9112 68.0317 53.4633C68.4914 53.0066 68.7545 52.3885 68.7651 51.7407C68.7436 51.1073 68.5412 50.4477 68.0659 50.0024C67.6114 49.539 66.9915 49.2751 66.3425 49.2687C65.6934 49.2623 65.0685 49.5139 64.6049 49.9683C64.1444 50.4251 63.8807 51.0438 63.8699 51.6924C63.893 52.3258 64.0938 52.9838 64.5708 53.4292C65.0303 53.8848 65.6465 54.1478 66.2934 54.1642Z" fill="#FDCC1D"/>
<path d="M50.7817 48.6064C51.4296 48.6044 52.0519 48.3535 52.52 47.9056C52.9797 47.4489 53.2428 46.8308 53.2534 46.183C53.2319 45.5496 53.0311 44.89 52.5541 44.4446C52.0997 43.9813 51.4798 43.7174 50.8307 43.711C50.1817 43.7046 49.5567 43.9562 49.0932 44.4105C48.6334 44.8679 48.3698 45.4863 48.3582 46.1347C48.3813 46.7665 48.5821 47.4261 49.0591 47.8714C49.5186 48.3271 50.1348 48.5901 50.7817 48.6064Z" fill="#FDCC1D"/>
<path d="M33.1724 66.1111L33.3026 65.9835C33.539 65.7723 33.7161 65.5028 33.8162 65.202C34.0012 64.7564 34.0544 64.267 33.9694 63.792C33.8844 63.317 33.6648 62.8764 33.3367 62.5226L32.851 62.136C32.4787 61.9123 32.0533 61.7926 31.619 61.7893L30.9655 61.8693C30.556 61.9785 30.1817 62.1918 29.8791 62.4885L29.7489 62.6162C29.3965 62.9521 29.1563 63.3885 29.0611 63.8659C28.9658 64.3434 29.0202 64.8385 29.2167 65.284C29.3109 65.5872 29.4826 65.8605 29.7148 66.0771L30.2005 66.4653C30.5736 66.6884 30.9994 66.8081 31.4341 66.812L32.0876 66.7304C32.4973 66.6215 32.8716 66.4081 33.1741 66.1112L33.1724 66.1111Z" fill="#FDCC1D"/>
<path d="M45.1606 83.7999C45.8085 83.7979 46.4308 83.5469 46.8989 83.099C47.3586 82.6424 47.6217 82.0243 47.6323 81.3764C47.6108 80.7431 47.4101 80.0834 46.933 79.6381C46.4786 79.1747 45.8587 78.9108 45.2096 78.9044C44.5606 78.898 43.9356 79.1497 43.4721 79.604C43.0124 80.0614 42.7487 80.6798 42.7371 81.3282C42.7602 81.9616 42.961 82.6196 43.438 83.0649C43.8975 83.5206 44.5137 83.7835 45.1606 83.7999Z" fill="#FDCC1D"/>
<path d="M53.3859 71.6614C54.0333 71.6592 54.6551 71.4083 55.1226 70.9605C55.5835 70.5045 55.8473 69.8861 55.8576 69.2379C55.8345 68.6045 55.6338 67.9449 55.1567 67.4996C54.7023 67.0362 54.0824 66.7723 53.4334 66.7659C52.7843 66.7595 52.1594 67.0111 51.6958 67.4654C51.2358 67.9225 50.9726 68.5412 50.9624 69.1897C50.9839 69.823 51.1863 70.4811 51.6617 70.9264C52.1218 71.3821 52.7385 71.6451 53.3859 71.6614Z" fill="#FDCC1D"/>
<path d="M76.1436 74.216L76.1448 74.0871C76.1343 73.4431 75.877 72.8278 75.4261 72.3679C74.9752 71.908 74.365 71.6386 73.7214 71.6154L73.0678 71.6954C72.6582 71.8043 72.2838 72.0177 71.9814 72.3146C71.8509 72.4765 71.722 72.6385 71.5931 72.8004C71.3697 73.1727 71.25 73.5981 71.2465 74.0323L71.2452 74.1612C71.2655 74.8049 71.5139 75.4205 71.9461 75.8979C72.1574 76.1343 72.4268 76.3114 72.7276 76.4115C73.0163 76.567 73.3409 76.6434 73.6687 76.6329L74.3222 76.5513C74.7319 76.4424 75.1062 76.229 75.4086 75.9321L75.7953 75.4463C76.0185 75.0739 76.1382 74.6486 76.142 74.2144L76.1436 74.216Z" fill="#FDCC1D"/>
<path d="M82.7114 59.2119C83.3585 59.21 83.9802 58.9597 84.4481 58.5126C84.9086 58.0557 85.1723 57.437 85.1831 56.7884C85.16 56.155 84.9592 55.497 84.4822 55.0517C84.0277 54.5883 83.4078 54.3244 82.7588 54.318C82.1098 54.3116 81.4848 54.5632 81.0213 55.0176C80.5616 55.4742 80.2985 56.0923 80.2879 56.7401C80.3094 57.3735 80.5102 58.0315 80.9872 58.4785C81.4479 58.9331 82.0643 59.1953 82.7114 59.2119Z" fill="#FDCC1D"/>
</svg>
