<svg width="148" height="205" viewBox="0 0 148 205" fill="none" xmlns="http://www.w3.org/2000/svg">
<path d="M26.2407 163.461C23.4745 166.136 20.4504 168.589 18.146 171.669C15.8416 174.75 14.2927 178.661 15.0297 182.438C15.1957 183.352 15.5255 184.228 16.0033 185.024C16.8787 186.436 18.2958 187.454 19.8285 188.096C21.1183 188.634 22.5714 188.928 23.9184 188.558C25.3429 188.166 26.4953 187.082 27.357 185.88C30.571 181.438 30.6235 175.557 31.8378 170.204C32.8504 165.74 34.7282 161.523 36.0174 157.123C36.2549 156.309 36.4729 155.437 36.2251 154.634C36.1122 154.266 35.801 153.876 35.4245 153.956C35.3096 153.987 35.2032 154.044 35.1134 154.122C34.2689 154.782 33.9735 155.907 33.7229 156.95C31.7931 164.961 29.5575 172.89 27.016 180.737C26.6217 181.931 26.223 183.151 25.4531 184.142C24.9534 184.787 24.3095 185.307 23.5729 185.659C22.8364 186.011 22.0276 186.186 21.2114 186.169C20.3968 186.133 19.6063 185.881 18.9206 185.44C18.2349 184.999 17.6784 184.383 17.308 183.657C16.7439 182.483 16.7453 181.121 16.8543 179.823C16.9536 178.38 17.2349 176.956 17.6913 175.584C18.8043 172.42 21.1232 169.832 23.6187 167.591C26.1142 165.35 28.8417 163.358 31.1058 160.888C32.3695 159.51 33.5079 157.942 34.1225 156.153C34.6108 154.734 34.6665 151.96 33.2885 154.551C31.4959 157.914 28.9651 160.828 26.2407 163.461Z" fill="#FF8AB7"/>
<path d="M45.9893 160.336C45.9893 160.336 43.9653 164.685 31.8417 159.045C19.2586 153.194 21.7399 149.058 21.7399 149.058L46.6008 95.5907L70.8517 106.871L45.9893 160.336Z" fill="#4CB5C4"/>
<path d="M70.8029 106.977C70.102 108.483 64.1073 107.178 57.4107 104.064C50.7141 100.949 45.8527 97.2044 46.5513 95.7008C47.2499 94.1971 53.2469 95.4999 59.9435 98.6145C66.6401 101.729 71.5015 105.474 70.8029 106.977Z" fill="#3E9EAC"/>
<path d="M31.3015 143.967L34.4936 143.811L32.6766 146.44L33.8097 149.429L30.749 148.512L28.2566 150.514L28.183 147.319L25.5069 145.567L28.5242 144.509L29.362 141.423L31.3015 143.967Z" fill="#FDCC1D"/>
<path d="M50.5512 136.042L53.7451 135.887L51.9259 138.516L53.0612 141.504L49.9983 140.588L47.5059 142.591L47.4327 139.393L44.7581 137.644L47.7736 136.585L48.6132 133.5L50.5512 136.042Z" fill="#FDCC1D"/>
<path d="M42.8003 77.9279L47.2799 77.7105L44.7282 81.3977L46.3211 85.5917L42.024 84.3042L38.5284 87.1149L38.4243 82.631L34.6706 80.1749L38.9029 78.6893L40.0809 74.3621L42.8003 77.9279Z" fill="#FF8AB7"/>
<path d="M109.339 72.3471L113.819 72.1279L111.267 75.817L112.86 80.011L108.563 78.7235L105.068 81.5342L104.964 77.0503L101.21 74.5923L105.444 73.1089L106.62 68.7795L109.339 72.3471Z" fill="#FF8AB7"/>
<path d="M92.9726 24.0232L97.4523 23.8058L94.9005 27.493L96.4935 31.687L92.1963 30.3996L88.7007 33.2102L88.5967 28.7263L84.843 26.2702L89.0753 24.7846L90.2533 20.4575L92.9726 24.0232Z" fill="#FF8AB7"/>
<path d="M86.3499 111.823L90.8295 111.605L88.2775 115.294L89.8708 119.487L85.5733 118.201L82.078 121.01L81.974 116.526L78.2222 114.07L82.4545 112.585L83.6306 108.257L86.3499 111.823Z" fill="#FF8AB7"/>
<path d="M77.572 78.4098L82.0519 78.1905L79.4999 81.8796L81.0928 86.0736L76.7957 84.7861L73.3001 87.5968L73.1961 83.1129L69.4446 80.6552L73.6765 79.1715L74.853 74.8422L77.572 78.4098Z" fill="#FF8AB7"/>
<path d="M94.5275 44.5219L99.0074 44.3027L96.4554 47.9917L98.0483 52.1858L93.7512 50.8983L90.2559 53.7071L90.1519 49.2231L86.3982 46.767L90.6324 45.2818L91.8085 40.9543L94.5275 44.5219Z" fill="#FF8AB7"/>
<path d="M47.963 49.8752L52.443 49.6559L49.8909 53.345L51.482 57.5387L47.1868 56.2515L43.6896 59.06L43.5874 54.5764L39.8337 52.1203L44.0657 50.6366L45.2421 46.3072L47.963 49.8752Z" fill="#FF8AB7"/>
<path d="M45.9728 117.796L49.1667 117.641L47.3475 120.271L48.4828 123.258L45.4202 122.341L42.9278 124.344L42.8543 121.148L40.1781 119.397L43.1951 118.34L44.0348 115.255L45.9728 117.796Z" fill="#FDCC1D"/>
<path d="M65.3019 118.806L67.958 113.096L67.2612 113.131L65.3232 110.589L64.4838 113.672L61.4684 114.731L64.1427 116.482L64.2162 119.678L65.3019 118.806Z" fill="#FDCC1D"/>
<path d="M44.4154 100.288L42.2628 104.918L45.3086 105.831L44.1755 102.842L45.9929 100.211L44.4154 100.288Z" fill="#FDCC1D"/>
<path d="M45.9805 160.354L46.964 158.241L45.238 158.324L43.3 155.782L42.4625 158.866L39.4452 159.924L42.1195 161.675L42.1252 161.954C45.262 161.896 45.9805 160.354 45.9805 160.354Z" fill="#FDCC1D"/>
<path d="M73.1886 95.7618C74.8156 94.0703 76.9145 92.7471 79.2394 92.415C81.5642 92.0828 84.1067 92.8605 85.5667 94.699C86.3811 95.7227 86.8204 97.0037 87.0149 98.298C87.1777 99.3871 87.1665 100.542 86.6918 101.544C86.2171 102.545 85.2007 103.328 84.1015 103.274C82.9176 103.215 81.9518 102.203 81.5982 101.07C81.2447 99.9372 81.4118 98.7094 81.6673 97.5565C82.3258 94.5786 83.7221 91.6003 86.2523 89.8933C88.2525 88.5458 90.7571 88.1254 93.1672 88.1996C96.3914 88.2919 99.7022 89.2567 102.042 91.4757C103.119 92.4963 103.956 93.7438 104.492 95.1279C105.028 96.512 105.249 97.9979 105.139 99.478C105.03 100.958 104.592 102.395 103.858 103.685C103.125 104.975 102.113 106.086 100.897 106.937C99.6894 107.782 97.9752 108.328 96.7959 107.443C96.094 106.917 95.7802 106.011 95.6857 105.139C95.4431 102.87 96.4264 100.653 97.5762 98.6814C98.726 96.7099 100.121 94.7833 101.959 93.3797C103.798 91.976 106.115 91.1125 108.405 91.3918C111.091 91.72 113.436 93.6176 114.698 96.0111C115.96 98.4045 116.231 101.232 115.88 103.916C115.478 106.977 114.317 109.889 112.503 112.387C112.423 112.52 112.307 112.627 112.169 112.698C111.966 112.748 111.75 112.722 111.564 112.625L108.464 111.438C111.431 109.474 112.931 105.748 112.817 102.191C112.758 100.391 112.316 98.5698 111.313 97.072C110.311 95.5742 108.706 94.4374 106.917 94.2266C105.127 94.0158 103.298 94.7592 101.983 95.9925C100.668 97.2258 99.8359 98.9109 99.4027 100.661C99.2889 101.119 99.2182 101.657 99.5225 102.018C99.9047 102.471 100.629 102.363 101.159 102.087C102.606 101.319 103.372 99.5622 103.214 97.9343C103.056 96.3064 102.064 94.8297 100.777 93.82C99.4906 92.8103 97.922 92.2095 96.3334 91.8092C93.6052 91.1206 90.6211 90.9967 88.066 92.1696C85.5108 93.3425 83.5338 96.0449 83.8419 98.8374C83.8491 99.0834 83.9302 99.3216 84.0748 99.5209C84.4271 99.9313 85.1698 99.7511 85.4478 99.2853C85.7259 98.8195 85.627 98.2167 85.4198 97.7277C84.8954 96.5256 83.6827 95.701 82.3945 95.4539C81.1063 95.2068 79.7568 95.4755 78.5572 96.008C77.1475 96.6354 75.8813 97.646 75.1221 98.99C74.3629 100.334 74.1582 102.018 74.7462 103.442C73.6927 102.988 69.587 101.034 69.587 101.034C69.587 101.034 71.976 97.0201 73.1886 95.7618Z" fill="#FDCC1D"/>
<path d="M67.2264 79.2175C68.9923 77.6696 70.4109 75.6345 70.852 73.3287C71.2931 71.0229 70.6335 68.4393 68.8629 66.902C67.8774 66.0418 66.6178 65.5433 65.3346 65.2892C64.2544 65.0751 63.1007 65.033 62.0859 65.4587C61.0711 65.8845 60.2349 66.8662 60.2366 67.9671C60.2322 69.1504 61.2084 70.1701 62.3234 70.5707C63.4383 70.9712 64.669 70.867 65.8365 70.6649C68.8357 70.143 71.8803 68.8872 73.7015 66.4421C75.1424 64.5058 75.6711 62.0245 75.7145 59.6131C75.7741 56.3873 74.9618 53.0366 72.8559 50.5928C71.8864 49.4692 70.679 48.5753 69.3212 47.976C67.9634 47.3767 66.4894 47.087 65.0058 47.1279C63.5222 47.1688 62.0663 47.5392 60.7436 48.2124C59.4209 48.8855 58.2646 49.8446 57.3584 51.0199C56.4561 52.1866 55.8341 53.8701 56.6615 55.0939C57.1552 55.8192 58.0449 56.1742 58.9115 56.3079C61.1667 56.657 63.4264 55.7762 65.4495 54.7198C67.4727 53.6635 69.4618 52.3588 70.9494 50.5953C72.4369 48.8319 73.4108 46.5436 73.2366 44.2491C73.0332 41.5499 71.2455 39.1187 68.9133 37.7473C66.581 36.3759 63.7754 35.9753 61.0726 36.1994C57.9968 36.4601 55.0347 37.4846 52.4551 39.1799C52.3185 39.2541 52.2052 39.3648 52.1278 39.4996C52.0674 39.7005 52.083 39.9166 52.1715 40.1068L53.2138 43.2553C55.3144 40.3835 59.1046 39.0567 62.6525 39.3372C64.4497 39.4775 66.2481 40.0043 67.6951 41.0758C69.142 42.1473 70.2075 43.8032 70.3341 45.5947C70.4607 47.3862 69.6368 49.1853 68.343 50.4416C67.0492 51.6979 65.3259 52.459 63.5584 52.8012C63.0963 52.8946 62.555 52.9396 62.2091 52.6176C61.7755 52.2169 61.915 51.4891 62.2158 50.9805C63.0506 49.5676 64.8417 48.8877 66.4607 49.1301C68.0797 49.3725 69.5059 50.4173 70.4575 51.7571C71.4091 53.0969 71.935 54.6836 72.2616 56.2893C72.8225 59.0446 72.8069 62.0313 71.5143 64.5301C70.2217 67.0289 67.433 68.877 64.6466 68.4427C64.4012 68.4227 64.1674 68.3301 63.9749 68.1767C63.581 67.8059 63.797 67.0734 64.2747 66.8177C64.7524 66.562 65.3483 66.6775 65.8362 66.9166C67.0114 67.5019 67.7793 68.7448 67.969 70.0442C68.1588 71.3436 67.8225 72.677 67.2356 73.85C66.5444 75.2287 65.474 76.4487 64.0977 77.1438C62.7213 77.8389 61.0286 77.9665 59.632 77.313C60.0343 78.386 61.8001 82.5799 61.8001 82.5799C61.8001 82.5799 65.9132 80.3697 67.2264 79.2175Z" fill="#FDCC1D"/>
<path d="M100.3 62.1524C102.157 63.5878 104.425 64.5912 106.773 64.5813C109.122 64.5715 111.523 63.4368 112.702 61.3983C113.355 60.2657 113.606 58.9353 113.608 57.6273C113.61 56.5252 113.431 55.3847 112.819 54.4708C112.208 53.5569 111.083 52.9238 110.003 53.1367C108.841 53.3668 108.026 54.5113 107.848 55.6869C107.67 56.8625 108.006 58.0427 108.431 59.1525C109.518 62.0019 111.333 64.7443 114.083 66.0654C116.257 67.1075 118.795 67.1507 121.171 66.732C124.347 66.1718 127.481 64.733 129.474 62.1984C130.39 61.0313 131.036 59.6752 131.363 58.2283C131.691 56.7813 131.692 55.2796 131.368 53.8318C131.044 52.3841 130.402 51.0265 129.488 49.8574C128.575 48.6883 127.413 47.7369 126.087 47.072C124.767 46.4119 122.993 46.1241 121.954 47.1688C121.336 47.7932 121.157 48.7337 121.193 49.6112C121.282 51.8915 122.58 53.9416 124.005 55.7237C125.43 57.5059 127.083 59.202 129.103 60.3172C131.123 61.4324 133.545 61.9551 135.769 61.344C138.379 60.6288 140.423 58.4092 141.323 55.8562C142.223 53.3031 142.077 50.468 141.339 47.8655C140.495 44.8954 138.922 42.1834 136.763 39.9761C136.711 39.9013 136.644 39.8385 136.565 39.7922C136.487 39.7459 136.399 39.7171 136.309 39.7078C136.218 39.6985 136.126 39.7089 136.04 39.7383C135.954 39.7678 135.875 39.8155 135.809 39.8782L132.916 41.5049C136.139 43.016 138.167 46.4812 138.57 50.0235C138.776 51.805 138.604 53.6784 137.83 55.3053C137.056 56.9323 135.634 58.2933 133.894 58.7623C132.154 59.2314 130.23 58.7592 128.748 57.7343C127.266 56.7093 126.206 55.1727 125.517 53.4926C125.338 53.0569 125.188 52.5349 125.438 52.1323C125.75 51.6294 126.493 51.628 127.044 51.8193C128.586 52.3691 129.6 53.995 129.673 55.6319C129.746 57.2689 128.987 58.8672 127.861 60.0585C126.735 61.2498 125.27 62.0679 123.758 62.6955C121.16 63.7739 118.225 64.3299 115.526 63.5413C112.826 62.7527 110.479 60.3657 110.372 57.5564C110.344 57.3126 110.389 57.066 110.503 56.8484C110.791 56.3901 111.552 56.4595 111.894 56.8875C112.235 57.3156 112.237 57.9158 112.095 58.4393C111.753 59.7057 110.674 60.6973 109.435 61.1319C108.195 61.5665 106.822 61.4934 105.551 61.1405C104.068 60.7267 102.665 59.9092 101.718 58.6925C100.771 57.4758 100.322 55.8378 100.701 54.3427C99.7262 54.946 95.9473 57.4781 95.9473 57.4781C95.9473 57.4781 98.9171 61.0781 100.3 62.1524Z" fill="#FDCC1D"/>
<path d="M88.4316 72.1308L88.1314 72.0805C87.942 72.04 87.7453 72.0505 87.5614 72.111C87.2888 72.1805 87.0415 72.3258 86.8482 72.5301C86.6548 72.7344 86.5234 72.9893 86.4691 73.2653C86.4649 73.3946 86.4606 73.524 86.4548 73.6511C86.4808 73.9002 86.5713 74.1382 86.7176 74.3415L86.9672 74.6125C87.1653 74.7742 87.4024 74.8809 87.6548 74.9219L87.955 74.9722C88.3319 75.0189 88.7131 74.9309 89.0313 74.7238C89.1889 74.6222 89.317 74.481 89.4028 74.3144C89.52 74.1602 89.5941 73.9777 89.6176 73.7855L89.63 73.3994C89.6047 73.1505 89.5148 72.9126 89.3692 72.7093L89.1173 72.4399C88.9205 72.2774 88.6837 72.1706 88.4316 72.1308Z" fill="#4CB5C4"/>
<path d="M65.7895 92.8768L65.8899 92.2783C65.9414 91.9984 65.906 91.7095 65.7885 91.4504C65.6709 91.1912 65.4769 90.9743 65.2324 90.8287C65.0783 90.7126 64.8967 90.6387 64.7054 90.6141L64.3193 90.6018C64.0706 90.6278 63.8329 90.7177 63.6292 90.8626L63.3579 91.1141C63.1962 91.3122 63.0895 91.5494 63.0485 91.8018L62.9481 92.4003C62.9076 92.5896 62.9182 92.7863 62.9787 92.9703C63.0075 93.1552 63.0824 93.3299 63.1963 93.4784C63.2983 93.6352 63.4396 93.7626 63.606 93.848C63.7599 93.9658 63.9422 94.0405 64.1345 94.0648L64.5206 94.0771C64.7693 94.0511 65.007 93.9612 65.2108 93.8163L65.482 93.5648C65.6445 93.3672 65.7513 93.1298 65.7914 92.8771L65.7895 92.8768Z" fill="#4CB5C4"/>
<path d="M53.132 72.8978L53.1821 72.5995C53.2358 72.2233 53.1427 71.8408 52.9222 71.5314C52.7016 71.2219 52.3704 71.0091 51.9973 70.9372L51.6114 70.923C51.3627 70.949 51.125 71.0388 50.9213 71.1838L50.6501 71.4353C50.4883 71.6334 50.3816 71.8706 50.3406 72.123L50.2906 72.4213C50.2377 72.7978 50.3313 73.1803 50.552 73.49C50.7727 73.7996 51.1038 74.0129 51.477 74.0858L51.8631 74.0981C52.1118 74.0721 52.3495 73.9822 52.5533 73.8373L52.8245 73.5858C52.9874 73.3884 53.0942 73.1509 53.1339 72.8981L53.132 72.8978Z" fill="#4CB5C4"/>
<path d="M37.0635 69.5876L37.1135 69.2893C37.165 69.0095 37.1296 68.7205 37.0121 68.4614C36.8945 68.2022 36.7005 67.9853 36.456 67.8397C36.3019 67.7225 36.1194 67.6483 35.9272 67.6248L35.541 67.6125C35.2923 67.6385 35.0546 67.7284 34.8509 67.8733L34.5796 68.1248C34.417 68.3223 34.3102 68.5598 34.2702 68.8125L34.2202 69.1108C34.1687 69.3906 34.2041 69.6796 34.3216 69.9387C34.4392 70.1979 34.6332 70.4148 34.8777 70.5604C35.0313 70.6773 35.2131 70.7514 35.4047 70.775L35.7908 70.7873C36.0376 70.76 36.2733 70.6699 36.4753 70.5255L36.7465 70.274C36.909 70.0764 37.0158 69.839 37.056 69.5864L37.0635 69.5876Z" fill="#4CB5C4"/>
<path d="M47.0872 42.1347L47.4375 41.8867C47.5939 41.7839 47.7217 41.643 47.8089 41.4773C47.9577 41.2347 48.0336 40.9544 48.0276 40.6699C48.0217 40.3853 47.9341 40.1085 47.7753 39.8722L47.5238 39.601C47.3264 39.4381 47.0889 39.3312 46.8361 39.2916L46.45 39.2792C46.2011 39.3045 45.9632 39.3944 45.7599 39.5401L45.4096 39.788C45.2535 39.8912 45.1258 40.032 45.0382 40.1974C44.889 40.4399 44.8128 40.7202 44.8187 41.0049C44.8247 41.2896 44.9126 41.5665 45.0718 41.8025L45.3233 42.0737C45.5204 42.237 45.758 42.3439 46.011 42.3832L46.3971 42.3955C46.6461 42.3711 46.8843 42.2811 47.0872 42.1347Z" fill="#4CB5C4"/>
<path d="M60.9432 34.1124C61.3202 34.1708 61.7053 34.0826 62.0192 33.8658C62.3298 33.6418 62.5402 33.305 62.6055 32.9276C62.6684 32.5501 62.5791 32.163 62.357 31.8513C62.2472 31.6968 62.1079 31.5656 61.9473 31.465C61.7866 31.3644 61.6077 31.2965 61.4207 31.2651C61.2338 31.2338 61.0425 31.2396 60.8578 31.2823C60.6731 31.3249 60.4987 31.4036 60.3444 31.5138C60.1899 31.6238 60.0585 31.7632 59.9579 31.924C59.8572 32.0848 59.7893 32.2639 59.7579 32.451C59.7265 32.6381 59.7323 32.8295 59.775 33.0144C59.8177 33.1992 59.8963 33.3739 60.0066 33.5283C60.2332 33.8349 60.5681 34.0437 60.9432 34.1124Z" fill="#4CB5C4"/>
<path d="M85.6881 60.5035L85.7884 59.905C85.8289 59.7156 85.8183 59.519 85.7579 59.335C85.7311 59.1495 85.6561 58.9742 85.5403 58.8268C85.307 58.5272 84.9754 58.3196 84.6039 58.2408L84.2178 58.2285C83.968 58.2565 83.7297 58.349 83.5264 58.4969L83.2552 58.7484C83.0935 58.9464 82.9867 59.1836 82.9457 59.436L82.8454 60.0345C82.7984 60.4081 82.8849 60.7862 83.0894 61.1023C83.3231 61.4024 83.6555 61.6101 84.0276 61.6886L84.4138 61.701C84.6628 61.6765 84.901 61.5865 85.1039 61.4401L85.3748 61.1905C85.5373 60.9929 85.6442 60.7555 85.6843 60.5029L85.6881 60.5035Z" fill="#4CB5C4"/>
<path d="M122.642 43.1924L122.392 42.8418C122.159 42.5422 121.827 42.3346 121.456 42.2558C121.078 42.2086 120.696 42.2965 120.378 42.504L120.106 42.7555C119.945 42.9536 119.838 43.1908 119.797 43.4432L119.784 43.8293C119.811 44.078 119.9 44.3157 120.045 44.5194L120.295 44.87C120.397 45.0273 120.538 45.1553 120.705 45.2414C120.863 45.351 121.043 45.4243 121.232 45.4561C121.422 45.4879 121.616 45.4774 121.801 45.4254C121.987 45.3983 122.162 45.3233 122.31 45.2078L122.581 44.9563C122.743 44.7585 122.85 44.5212 122.89 44.2687L122.903 43.8825C122.877 43.6338 122.787 43.3961 122.642 43.1924Z" fill="#4CB5C4"/>
<path d="M78.1585 18.4077L78.5068 18.1594C78.6644 18.0578 78.7925 17.9167 78.8783 17.75C78.9963 17.5964 79.0705 17.4136 79.0932 17.2212C79.1345 17.0325 79.1238 16.8362 79.0623 16.6531C79.0359 16.4675 78.9609 16.2921 78.8447 16.1449L78.5951 15.874C78.3975 15.7115 78.1601 15.6047 77.9074 15.5646L77.5213 15.5522C77.2725 15.5779 77.0347 15.6678 76.8311 15.8131L76.4743 16.0541C76.3171 16.1561 76.1891 16.2971 76.1028 16.4635C75.9856 16.6176 75.9115 16.8001 75.888 16.9923C75.8475 17.1816 75.858 17.3784 75.9185 17.5623C75.9455 17.7473 76.0206 17.9219 76.1364 18.0686L76.3861 18.3395C76.5832 18.5027 76.8208 18.6096 77.0737 18.6489L77.4599 18.6613C77.7089 18.6368 77.947 18.5468 78.15 18.4005L78.1585 18.4077Z" fill="#4CB5C4"/>
<path d="M112.521 16.5964C112.899 16.6552 113.285 16.5664 113.599 16.3483C113.909 16.1237 114.119 15.7871 114.185 15.4101C114.246 15.0326 114.157 14.6462 113.937 14.3338C113.827 14.1792 113.687 14.0479 113.527 13.9472C113.366 13.8466 113.187 13.7786 113 13.7473C112.812 13.7159 112.621 13.7217 112.436 13.7644C112.251 13.807 112.077 13.8857 111.922 13.9959C111.768 14.1059 111.636 14.2453 111.536 14.4062C111.435 14.567 111.367 14.746 111.336 14.9331C111.304 15.1202 111.31 15.3117 111.353 15.4965C111.396 15.6814 111.474 15.856 111.584 16.0104C111.811 16.3175 112.146 16.527 112.521 16.5964Z" fill="#4CB5C4"/>
<path d="M130.975 79.1066C131.353 79.1654 131.739 79.0766 132.053 78.8585C132.208 78.7485 132.339 78.6091 132.44 78.4483C132.54 78.2874 132.608 78.1084 132.64 77.9213C132.671 77.7342 132.665 77.5427 132.623 77.3579C132.58 77.173 132.501 76.9984 132.391 76.844C132.281 76.6894 132.142 76.5581 131.981 76.4574C131.82 76.3568 131.641 76.2888 131.454 76.2575C131.267 76.2261 131.075 76.2319 130.89 76.2746C130.706 76.3172 130.531 76.3959 130.377 76.5061C130.222 76.6161 130.091 76.7555 129.99 76.9164C129.889 77.0772 129.821 77.2563 129.79 77.4434C129.759 77.6305 129.765 77.8219 129.807 78.0067C129.85 78.1916 129.929 78.3662 130.039 78.5206C130.265 78.8278 130.6 79.0373 130.975 79.1066Z" fill="#4CB5C4"/>
<path d="M104.098 114.079L104.198 113.479C104.238 113.29 104.228 113.094 104.167 112.911C104.132 112.727 104.058 112.553 103.949 112.401C103.841 112.249 103.701 112.122 103.539 112.029C103.385 111.912 103.203 111.838 103.012 111.814L102.626 111.802C102.377 111.827 102.139 111.917 101.936 112.063L101.675 112.318C101.514 112.515 101.407 112.752 101.366 113.004L101.266 113.604C101.219 113.981 101.307 114.362 101.514 114.68C101.616 114.838 101.757 114.966 101.923 115.052C102.078 115.169 102.26 115.243 102.452 115.267L102.838 115.279C103.087 115.254 103.325 115.164 103.529 115.018L103.799 114.769C103.962 114.571 104.069 114.334 104.109 114.081L104.098 114.079Z" fill="#4CB5C4"/>
<path d="M122.128 91.4765C122.506 91.5343 122.892 91.4456 123.206 91.2284C123.516 91.0035 123.725 90.6668 123.791 90.2898C123.853 89.9127 123.765 89.5261 123.544 89.2139C123.317 88.9062 122.982 88.6966 122.606 88.6275C122.228 88.569 121.843 88.658 121.53 88.876C121.375 88.986 121.244 89.1254 121.143 89.2863C121.042 89.4471 120.974 89.6261 120.943 89.8132C120.912 90.0003 120.917 90.1918 120.96 90.3766C121.003 90.5615 121.081 90.7361 121.192 90.8905C121.418 91.1976 121.753 91.4071 122.128 91.4765Z" fill="#4CB5C4"/>
<path d="M51.9528 89.5585C52.3302 89.6167 52.7154 89.5277 53.0291 89.31C53.1836 89.2 53.315 89.0606 53.4156 88.8998C53.5163 88.739 53.5842 88.5599 53.6156 88.3728C53.647 88.1857 53.6412 87.9943 53.5985 87.8094C53.5558 87.6246 53.4771 87.4499 53.3669 87.2955C53.2569 87.141 53.1175 87.0096 52.9567 86.909C52.7959 86.8083 52.6168 86.7404 52.4297 86.709C52.2426 86.6776 52.0512 86.6834 51.8663 86.7261C51.6815 86.7688 51.5069 86.8475 51.3524 86.9577C51.1979 87.0677 51.0665 87.2071 50.9659 87.3679C50.8653 87.5287 50.7973 87.7078 50.7659 87.8949C50.7345 88.082 50.7404 88.2734 50.783 88.4583C50.8257 88.6431 50.9044 88.8178 51.0146 88.9722C51.2417 89.2795 51.577 89.4891 51.9528 89.5585Z" fill="#4CB5C4"/>
<path d="M24.1628 55.8376L24.5134 55.5878C24.6683 55.4853 24.7941 55.3446 24.8789 55.1793C24.9884 55.0213 25.0617 54.8411 25.0935 54.6514C25.1253 54.4618 25.1148 54.2675 25.0628 54.0824C25.0365 53.8968 24.9614 53.7214 24.8452 53.5742L24.5937 53.303C24.3964 53.1401 24.1589 53.0332 23.9061 52.9936L23.5199 52.9812C23.2711 53.0065 23.0332 53.0964 22.8298 53.242L22.4796 53.49C22.3234 53.5932 22.1957 53.734 22.1081 53.8994C21.9985 54.0577 21.9251 54.2383 21.8933 54.4282C21.8614 54.6181 21.8719 54.8128 21.9238 54.9982C21.9523 55.1827 22.0273 55.3569 22.1417 55.5045L22.3932 55.7757C22.5908 55.9382 22.8282 56.045 23.0809 56.0852L23.467 56.0975C23.7161 56.073 23.9542 55.983 24.1572 55.8367L24.1628 55.8376Z" fill="#4CB5C4"/>
</svg>
